<?xml version="1.0" encoding="UTF-8"?>
<svg width="248px" height="150px" viewBox="0 0 248 150" version="1.1" xmlns="http://www.w3.org/2000/svg" xmlns:xlink="http://www.w3.org/1999/xlink">
    <!-- Generator: Sketch 57.1 (83088) - https://sketch.com -->
    <title>airfi_logo_light_color</title>
    <desc>Created with Sketch.</desc>
    <defs>
        <linearGradient x1="4.82084038%" y1="55.7681108%" x2="100%" y2="41.4872382%" id="linearGradient-1">
            <stop stop-color="#0AA64B" offset="0%"></stop>
            <stop stop-color="#0EAABB" offset="100%"></stop>
        </linearGradient>
    </defs>
    <g id="Page-1" stroke="none" stroke-width="1" fill="none" fill-rule="evenodd">
        <g id="airfi_logo_light_color" transform="translate(0.000000, -11.000000)">
            <g id="AirFi-Copy" transform="translate(26.000000, 67.000000)" fill-rule="nonzero">
                <path d="M34.9480142,47.971831 C34.9480142,49.1037188 34.5538153,50.0469446 33.7654056,50.8015365 C32.9769958,51.6005162 32.0462483,52 30.973135,52 L30.8745843,52 C29.801471,52 28.8707235,51.6005162 28.0823138,50.8015365 C27.293904,50.0469446 26.8997051,49.1037188 26.8997051,47.971831 L26.8997051,33.1241997 L8.99632343,33.1241997 L8.99632343,47.971831 C8.99632343,49.1037188 8.60212447,50.0469446 7.81371473,50.8015365 C7.02530499,51.6005162 6.09455746,52 5.0214442,52 L4.92289348,52 C3.84978022,52 2.91903268,51.6005162 2.13062295,50.8015365 C1.34221321,50.0469446 0.948014249,49.1037188 0.948014249,47.971831 L0.948014249,17.2112676 C0.948014249,12.4617774 2.61240984,8.40035831 5.94125096,5.0268886 C9.27009209,1.67561278 13.2668315,0 17.9315891,0 C22.618247,0 26.6259364,1.67561278 29.9547775,5.0268886 C33.2836187,8.40035831 34.9480142,12.4617774 34.9480142,17.2112676 L34.9480142,47.971831 Z M26.9480142,24 L26.9480142,16.6153846 C26.9480142,14.2379894 26.0782982,12.2077665 24.3388399,10.5246548 C22.5773632,8.8415432 20.4416048,8 17.9315005,8 C15.4434147,8 13.3186653,8.8415432 11.5571886,10.5246548 C9.81773032,12.2077665 8.94801425,14.2379894 8.94801425,16.6153846 L8.94801425,24 L26.9480142,24 Z M46.9969938,13 C48.1072035,13 49.0323643,13.4062459 49.772504,14.21875 C50.5561814,15.0312541 50.9480142,16.0017305 50.9480142,17.1302083 L50.9480142,47.9036458 C50.9480142,49.0546933 50.5561814,50.0138851 49.772504,50.78125 C49.0323643,51.5937541 48.1072035,52 46.9969938,52 L46.9316877,52 C45.8432469,52 44.9072018,51.5937541 44.1235245,50.78125 C43.3398471,50.0138851 42.9480142,49.0546933 42.9480142,47.9036458 L42.9480142,17.1302083 C42.9480142,16.0017305 43.3398471,15.0312541 44.1235245,14.21875 C44.9072018,13.4062459 45.8432469,13 46.9316877,13 L46.9969938,13 Z M46.9480142,10 C45.567055,10 44.3884953,9.51016022 43.4123,8.53046595 C42.4361046,7.55077168 41.9480142,6.36798781 41.9480142,4.98207885 C41.9480142,3.62006487 42.4361046,2.44922832 43.4123,1.46953405 C44.3884953,0.489839785 45.567055,0 46.9480142,0 C48.3051639,0 49.4718189,0.489839785 50.4480142,1.46953405 C51.4480142,2.42533333 51.9480142,3.59616989 51.9480142,4.98207885 C51.9480142,6.3918828 51.4480142,7.57466667 50.4480142,8.53046595 C49.4718189,9.51016022 48.3051639,10 46.9480142,10 Z M74.8430062,13 C75.973868,13 76.9463947,13.4062459 77.7606152,14.21875 C78.5522185,15.0312541 78.9480142,16.0017305 78.9480142,17.1302083 L78.9480142,17.1979167 C78.9480142,18.3263945 78.5522185,19.2855863 77.7606152,20.0755208 C76.9463947,20.8880249 75.973868,21.2942708 74.8430062,21.2942708 L72.909242,21.2942708 C71.0546286,21.2942708 69.4827541,21.9374936 68.1935716,23.2239583 C66.9270063,24.5104231 66.2824247,26.0789838 66.2598075,27.9296875 L66.2598075,47.9036458 C66.2598075,49.0546933 65.8527033,50.0138851 65.0384827,50.78125 C64.2242622,51.5937541 63.263044,52 62.1547994,52 L62.0530223,52 C60.9447777,52 59.9835595,51.5937541 59.169339,50.78125 C58.3551184,50.0138851 57.9480142,49.0546933 57.9480142,47.9036458 L57.9480142,27.9296875 C57.9932487,23.7994585 59.4520387,20.2786604 62.3244278,17.3671875 C65.2420515,14.4557146 68.7702876,13 72.909242,13 L74.8430062,13 Z" id="Air" fill="#2BACE4"></path>
                <path d="M90.9808011,21.9385403 L104.652932,21.9385403 C105.723976,21.9385403 106.652928,22.3269274 107.439818,23.1037132 C108.226707,23.9026929 108.620145,24.8570154 108.620145,25.9667093 L108.620145,26.0332907 C108.620145,27.1651785 108.226707,28.1084043 107.439818,28.8629962 C106.652928,29.6619758 105.723976,30.0614597 104.652932,30.0614597 L90.9808011,30.0614597 L90.9808011,47.971831 C90.9808011,49.1037188 90.5873624,50.0469446 89.8004733,50.8015365 C89.0135841,51.6005162 88.0846316,52 87.013588,52 L86.9152274,52 C85.8441838,52 84.9152313,51.6005162 84.1283421,50.8015365 C83.3414529,50.0469446 82.9480142,49.1037188 82.9480142,47.971831 L82.9480142,12.1510883 C82.9480142,8.79981252 84.1174015,5.93684499 86.456211,3.56209987 C88.7950205,1.18735475 91.6146644,0 94.9152274,0 L104.980801,0 C106.051845,0 106.980797,0.388387068 107.767686,1.16517286 C108.554576,1.96415252 108.948014,2.91847503 108.948014,4.02816901 L108.948014,4.09475032 C108.948014,5.2044443 108.554576,6.15876681 107.767686,6.95774648 C106.980797,7.73453227 106.051845,8.12291933 104.980801,8.12291933 L94.9152274,8.12291933 C93.8223257,8.12291933 92.8933733,8.5113064 92.1283421,9.28809219 C91.363311,10.064878 90.9808011,11.0192005 90.9808011,12.1510883 L90.9808011,21.9385403 Z M117.996994,13 C119.107203,13 120.032364,13.4062459 120.772504,14.21875 C121.556181,15.0312541 121.948014,16.0017305 121.948014,17.1302083 L121.948014,47.9036458 C121.948014,49.0546933 121.556181,50.0138851 120.772504,50.78125 C120.032364,51.5937541 119.107203,52 117.996994,52 L117.931688,52 C116.843247,52 115.907202,51.5937541 115.123524,50.78125 C114.339847,50.0138851 113.948014,49.0546933 113.948014,47.9036458 L113.948014,17.1302083 C113.948014,16.0017305 114.339847,15.0312541 115.123524,14.21875 C115.907202,13.4062459 116.843247,13 117.931688,13 L117.996994,13 Z M117.948014,10 C116.567055,10 115.388495,9.51016022 114.4123,8.53046595 C113.436105,7.55077168 112.948014,6.36798781 112.948014,4.98207885 C112.948014,3.62006487 113.436105,2.44922832 114.4123,1.46953405 C115.388495,0.489839785 116.567055,0 117.948014,0 C119.305164,0 120.471819,0.489839785 121.448014,1.46953405 C122.448014,2.42533333 122.948014,3.59616989 122.948014,4.98207885 C122.948014,6.3918828 122.448014,7.57466667 121.448014,8.53046595 C120.471819,9.51016022 119.305164,10 117.948014,10 Z" id="Fi" fill="#3DB23F"></path>
            </g>
            <path d="M129.686424,137.375713 C157.428858,124.430436 178.676544,102.147863 191.998362,75.0033378 C182.459688,109.379683 161.507656,137.581261 131.211044,151.718377 C90.550182,170.691697 43.1888783,159.6045 5.99802566,127.32058 C43.4366547,151.029868 89.0072305,156.357587 129.686424,137.375713 Z" id="Combined-Shape-Copy" fill="url(#linearGradient-1)"></path>
            <g id="wireless-signal-copy" transform="translate(180.948014, 0.000000)" fill="#2BACE4" fill-rule="nonzero">
                <circle id="Oval" transform="translate(18.573141, 63.769274) rotate(30.000000) translate(-18.573141, -63.769274) " cx="18.5731408" cy="63.7692737" r="7.58333333"></circle>
                <path d="M48.4260377,45.5421234 C45.6369432,42.5592786 42.388642,40.2145372 38.7694771,38.5852268 C35.0213442,36.886951 31.0394567,36.024882 26.9448029,36.024882 C22.7533424,36.024882 18.6907694,36.9214337 14.870092,38.6886751 C11.1864431,40.3955717 7.89775872,42.8352268 5.09270441,45.9386751 L14.3622804,55.524882 C17.6912673,51.8438475 22.1488049,49.8179855 26.9366618,49.8179855 C31.6036918,49.8179855 35.9966648,51.7663475 39.3014701,55.2921234 L48.4260377,45.5421234 Z" id="Path" transform="translate(26.759371, 45.774882) rotate(30.000000) translate(-26.759371, -45.774882) "></path>
                <path d="M37.1340447,16.4245982 C30.2960114,16.4245982 23.6570668,17.7609673 17.4002198,20.4100789 C11.366263,22.9636503 5.94525431,26.6150188 1.28844069,31.2607687 L10.2916137,40.2579316 C13.7782536,36.7736191 17.8380399,34.0370815 22.3515669,32.1278693 C27.0243013,30.1550166 31.9915692,29.1526801 37.1180443,29.1526801 C47.1879063,29.1526801 56.6687012,33.0506552 63.8250695,40.1306507 L72.7884407,31.0857575 C68.1634685,26.495693 62.7583806,22.8840998 56.7564244,20.3623486 C50.5391404,17.7530918 43.9320373,16.4245982 37.1340447,16.4245982 Z" id="Path" transform="translate(37.038441, 28.341265) rotate(30.000000) translate(-37.038441, -28.341265) "></path>
            </g>
            <path d="M0.627433853,135.866869 C2.22490209,136.759855 6.37300101,133.066216 9.89247212,127.616894 C13.4119432,122.167573 14.9700344,117.026117 13.3725661,116.133131 C11.7750979,115.240145 7.62699899,118.933784 4.10752788,124.383106 C0.588056785,129.832427 -0.970034386,134.973883 0.627433853,135.866869 Z" id="Oval-Copy-2" fill="#0AA64B"></path>
        </g>
    </g>
</svg>